# xmcd
#
# Track frame offsets: 
#        150
#        18825
#        31637
#        45605
#        57962
#        73637
#        88080
#        102520
#        116802
#        130652
#
# Disc length: 1932 seconds
#
# Revision: 0
# Processed by: cddbd v1.5.1PL0 Copyright (c) Steve Scherf et al.
# Submitted via: ExactAudioCopy v0.95a5
#
DISCID=7e078a0a
DTITLE=Don Williams - Some Broken Hearts Never Mend
DYEAR=1993
DGENRE=Country
TTITLE0=I Believe In You
TTITLE1=Some Broken Hearts Never Mend
TTITLE2=Amanda
TTITLE3=Falling In Love Again
TTITLE4=Too Many Tears (To Make Love Strong)
TTITLE5=Come Early Morning
TTITLE6=Down The Road I Go
TTITLE7=I've Turned You To Stone
TTITLE8=Missing You, Missing Me
TTITLE9=I Don't Wanna Let Go
EXTD=
EXTT0=
EXTT1=
EXTT2=
EXTT3=
EXTT4=
EXTT5=
EXTT6=
EXTT7=
EXTT8=
EXTT9=
PLAYORDER=
